# xmcd
#
# Track frame offsets:
#	150
#	17515
#	34525
#	51834
#	70729
#	99602
#	122008
#	140580
#	157349
#	171063
#	188454
#	206193
#	226158
#	242992
#	261404
#	281319
#	300728
#
# Disc length: 4341 seconds
#
# Revision: 3
# Processed by: cddbd v1.5.2PL0 Copyright (c) Steve Scherf et al.
# Submitted via: audiograbber 1.83.01
#
DISCID=ed10f311
DTITLE=Various Artist - The 80's Double Collection English No.1 Hit [CD 2)
DYEAR=1900
DGENRE=
TTITLE0=Bangles - Eternal Flame
TTITLE1=Glenn Medeiros - Nothing Gonna Change My Love For You
TTITLE2=Starship - Nothing's Gonna Stop Us
TTITLE3=Chris De Burgh - The Lady In Red
TTITLE4=USA for Africa - We Are The World
TTITLE5=George Michael - Careless Whisper
TTITLE6=Paul Young - Wherever I Lay My Hat
TTITLE7=Paul McCartney and Stevie Wonder - Ebony And Ivory
TTITLE8=John Lennon - Imagine
TTITLE9=Barbra Streisand - Woman In Love
TTITLE10=Kylie Minogue and Jason Donovan - Especially For You
TTITLE11=Enya - Orinoco Flow
TTITLE12=Michael Jackson and Seidah Garret - I Just Can't Stop Loving You
TTITLE13=Berlin - Take My Breath Away
TTITLE14=Jennifer Rush - The Power Of Love
TTITLE15=Stevie Wonder - I Just Call To Say I Love You
TTITLE16=Bonnie Tyler - Total Eclipse Of The Heart
EXTD=Errors Corrected
EXTT0=
EXTT1=
EXTT2=
EXTT3=
EXTT4=
EXTT5=
EXTT6=
EXTT7=
EXTT8=
EXTT9=
EXTT10=
EXTT11=
EXTT12=
EXTT13=
EXTT14=
EXTT15=
EXTT16=
PLAYORDER=
